<?xml version="1.0" encoding="UTF-8" standalone="no"?>
<svg
	xmlns:svg="http://www.w3.org/2000/svg"
	xmlns="http://www.w3.org/2000/svg"
	version="1.0"
	width="640"
	height="640">
	<title>Truchet Base Tiling</title>
	<rect x="0" y="0" height="640" width="640" style="fill:white;stroke:none" />
	<g style="fill:black;stroke:none">
		<polygon points="0,0 120,0 120,40 160,0 160,40 200,0 240,0 200,40 240,40 280,0 320,0 320,40 360,0 360,40 400,0 440,0 480,40 520,0 640,0 600,40 600,0 560,40 560,0 520,40 440,40 400,0 400,40 320,40 280,0 280,40 160,40 120,40 80,0 40,40" />
		<polygon points="0,40 40,40 40,80 80,40 80,80 120,40 120,80 160,40 360,40 360,80 400,40 400,80 440,40 560,40 600,80 640,40 640,80 560,80 560,40 520,80 480,40 480,80 440,40 440,80 360,80 320,40 320,80 280,40 240,80 200,40 160,80 40,80" />
		<polygon points="0,80 80,80 120,120 160,120 120,80 160,80 200,120 200,80 240,120 240,80 280,120 320,120 280,80 320,80 320,120 360,80 400,120 440,80 640,80 600,120 560,120 600,80 560,80 520,120 480,80 440,120 80,120 40,80 0,120" />
		<polygon points="80,120 80,160 120,120 120,160 160,120 200,160 240,160 200,120 520,120 560,160 560,120 600,160 600,120 640,120 600,160 480,160 520,120 480,120 440,160 400,120 360,160 360,120 320,160 320,120 280,160 280,120 240,160 40,160 80,120 40,120 0,160 0,120" />
		<polygon points="0,160 120,160 120,200 160,160 200,200 240,160 280,160 280,200 320,160 360,200 360,160 400,200 440,160 440,200 480,160 520,160 560,200 600,160 640,160 600,200 520,200 480,160 480,200 360,200 280,200 240,160 240,200 120,200 80,160 40,200" />
		<polygon points="0,200 40,240 40,200 80,240 120,240 80,200 160,200 200,240 240,200 280,240 320,240 280,200 320,200 320,240 360,200 360,240 400,200 400,240 440,200 520,200 560,240 600,240 560,200 640,200 600,240 520,240 520,200 480,240 480,200 440,240 320,240 160,240 120,200 120,240 0,240" />
		<polygon points="0,240 40,280 40,240 120,240 120,280 160,240 200,280 200,240 240,280 240,240 280,240 320,280 320,240 600,240 640,280 600,280 560,240 520,280 480,240 480,280 440,240 440,280 400,240 400,280 360,280 400,240 360,240 320,280 280,280 280,240 240,280 120,280 80,240 40,280 0,280" />
		<polygon points="0,280 40,280 80,320 80,280 160,280 200,320 240,280 240,320 280,280 280,320 320,280 360,320 400,280 440,280 480,320 480,280 520,320 520,280 600,280 640,320 600,320 600,280 560,320 560,280 520,320 440,320 440,280 400,320 160,320 120,280 80,320 40,320 40,280 0,320" />
		<polygon points="0,320 40,360 80,360 40,320 80,320 80,360 120,320 160,320 200,360 200,320 240,360 240,320 480,320 480,360 520,320 560,360 600,320 640,320 640,360 600,320 600,360 480,360 440,320 400,360 360,320 320,360 280,320 240,360 160,360 160,320 120,360 80,360 0,360" />
		<polygon points="0,360 40,400 40,360 200,360 240,400 240,360 280,400 320,400 280,360 440,360 440,400 480,360 520,400 560,360 640,360 600,400 560,360 560,400 440,400 400,360 400,400 360,360 320,400 280,400 200,400 160,360 120,400 120,360 80,400 80,360 40,400 0,400" />
		<polygon points="40,400 40,440 80,400 120,400 120,440 160,400 240,400 280,440 280,400 360,400 400,440 400,400 440,440 480,440 440,400 640,400 640,440 600,440 640,400 600,400 560,440 520,400 520,440 480,400 480,440 440,440 360,440 320,400 280,440 240,440 240,400 200,440 200,400 160,440 120,440 80,400 80,440 0,440" />
		<polygon points="80,440 120,480 160,440 320,440 320,480 360,440 400,440 440,480 480,480 440,440 640,440 640,480 600,440 560,440 600,480 560,480 520,440 480,480 400,480 360,440 360,480 320,480 280,440 280,480 240,440 240,480 200,440 200,480 160,440 160,480 0,480 0,440 40,440 0,480 40,480" />
		<polygon points="0,480 40,520 80,480 120,520 120,480 360,480 400,520 440,480 480,480 480,520 520,480 600,480 640,520 600,520 600,480 560,520 560,480 520,520 480,520 440,480 440,520 360,520 320,480 320,520 280,520 320,480 280,480 240,520 240,480 200,520 160,480 120,520 0,520" />
		<polygon points="0,520 160,520 160,560 200,520 200,560 240,520 320,520 320,520 360,560 400,560 360,520 520,520 560,560 560,520 600,560 640,560 600,520 640,520 640,560 520,560 520,520 480,560 480,520 440,560 440,520 400,560 320,560 320,520 280,560 280,520 240,560 120,560 160,520 120,520 80,560 40,520 0,560" />
		<polygon points="0,560 40,600 80,560 200,560 240,600 240,560 280,600 280,560 320,600 360,600 320,560 480,560 520,600 560,560 600,560 600,600 640,560 640,600 600,600 560,560 560,600 440,600 480,560 440,560 400,600 400,560 360,600 200,600 200,560 160,600 160,560 120,600 120,560 80,600 0,600" />
		<polygon points="0,600 240,600 240,640 280,600 280,600 320,640 360,600 400,640 400,600 520,600 560,640 600,600 640,600 640,640 600,600 600,640 520,640 480,600 480,640 440,600 400,640 200,640 240,600 200,600 160,640 120,640 160,600 120,600 80,640 40,640 80,600 40,600 0,640" />
	</g>
</svg>
