<?xml version="1.0" standalone="no"?>
<!DOCTYPE svg PUBLIC "-//W3C//DTD SVG 20010904//EN"
 "http://www.w3.org/TR/2001/REC-SVG-20010904/DTD/svg10.dtd">
<svg version="1.0" xmlns="http://www.w3.org/2000/svg"
 width="16.000000pt" height="16.000000pt" viewBox="0 0 16.000000 16.000000"
 preserveAspectRatio="xMidYMid meet">
<metadata>
Created by potrace 1.11, written by Peter Selinger 2001-2013
</metadata>
<g transform="translate(0.000000,16.000000) scale(0.012308,-0.012308)"
fill="#000000" stroke="none">
<path d="M580 1189 c-64 -26 -100 -85 -100 -161 -1 -53 -1 -53 -14 -23 -53
121 -230 124 -291 4 -26 -50 -17 -94 65 -310 l80 -211 0 -148 c0 -136 2 -150
23 -180 50 -74 53 -75 310 -78 288 -4 308 -1 355 46 34 34 40 49 75 192 43
179 51 329 21 394 -16 33 -76 76 -108 76 -9 0 -28 13 -42 29 -32 37 -82 61
-123 61 l-31 0 0 104 c0 112 -12 145 -72 189 -31 23 -111 32 -148 16z m93 -81
c44 -23 46 -35 47 -222 l0 -178 -32 -74 -33 -74 -78 0 -78 0 -49 -46 c-42 -39
-50 -43 -50 -26 0 11 -36 114 -80 230 -44 115 -80 218 -80 229 0 25 34 61 64
69 13 3 37 -1 53 -9 24 -13 37 -40 94 -189 55 -144 70 -174 88 -176 21 -3 21
-2 21 210 1 221 2 232 45 256 26 15 41 15 68 0z m204 -334 c32 -32 29 -48 -31
-176 l-45 -97 -30 29 c-20 20 -39 30 -60 30 -17 0 -31 2 -31 5 0 2 22 51 49
108 61 132 94 155 148 101z m144 -85 c28 -28 23 -47 -45 -192 -62 -131 -85
-154 -134 -126 -51 28 -50 54 7 180 29 63 59 124 67 137 19 29 76 30 105 1z
m-15 -344 c-48 -197 -28 -185 -312 -185 -299 0 -293 -3 -294 166 l0 111 54 52
55 51 115 0 c103 0 118 -2 136 -20 29 -29 26 -74 -6 -99 -22 -17 -41 -21 -100
-21 -43 0 -74 -4 -74 -10 0 -16 153 -12 175 4 17 12 22 10 51 -20 37 -40 78
-45 116 -15 13 11 44 64 69 118 l44 98 3 -45 c1 -27 -12 -102 -32 -185z"/>
</g>
</svg>
